<svg width="1000" height="500" viewBox="0 0 1000 500" fill="none" xmlns="http://www.w3.org/2000/svg">
<g clip-path="url(#clip0_1_2)">
<path d="M493.752 357.845C491.779 358.658 489.656 359.04 487.523 358.966C480.845 358.966 475.841 354.756 475.841 347.009C475.747 345.361 476.001 343.711 476.587 342.168C477.172 340.625 478.077 339.222 479.241 338.051C480.405 336.881 481.802 335.969 483.342 335.375C484.882 334.78 486.53 334.517 488.179 334.602C490.104 334.514 492.024 334.874 493.787 335.655L493.062 338.14C491.562 337.459 489.929 337.123 488.282 337.156C482.743 337.156 479.068 340.693 479.068 346.905C479.068 352.686 482.398 356.413 488.144 356.413C489.857 356.433 491.555 356.099 493.131 355.429L493.752 357.845Z" fill="black"/>
<path d="M508.109 335.291C510.04 334.952 511.998 334.79 513.958 334.808C516.422 334.542 518.893 335.234 520.86 336.741C521.471 337.313 521.952 338.009 522.27 338.783C522.589 339.557 522.738 340.391 522.707 341.227C522.723 342.579 522.298 343.899 521.494 344.987C520.69 346.074 519.552 346.869 518.255 347.249V347.352C519.199 347.777 520.014 348.442 520.62 349.28C521.226 350.119 521.6 351.103 521.706 352.132C522.126 354.344 522.738 356.514 523.535 358.62H520.36C519.659 356.793 519.133 354.904 518.79 352.978C518.082 349.716 516.823 348.474 514.045 348.371H511.18V358.62H508.109V335.291ZM511.163 346.058H514.269C517.547 346.058 519.601 344.333 519.601 341.572C519.601 338.518 517.392 337.189 514.165 337.155C513.157 337.126 512.149 337.219 511.163 337.431V346.058Z" fill="black"/>
<path d="M549.693 347.543H540.547V356.05H550.78V358.621H537.493V334.981H550.262V337.535H540.547V345.006H549.693V347.543Z" fill="black"/>
<path d="M569.087 351.218L566.637 358.655H563.497L571.537 335.016H575.213L583.288 358.655H580.027L577.473 351.218H569.087ZM576.852 348.837L574.523 342.021C574.005 340.486 573.66 339.088 573.297 337.708C572.952 339.123 572.573 340.555 572.107 341.987L569.795 348.889L576.852 348.837Z" fill="black"/>
<path d="M599.042 337.57H591.864V334.981H609.36V337.57H602.131V358.621H599.042V337.57Z" fill="black"/>
<path d="M625.615 334.981V358.621H622.509V334.981H625.615Z" fill="black"/>
<path d="M641.421 358.621V334.981H644.751L652.326 346.939C653.901 349.407 655.319 351.971 656.571 354.618V354.618C656.295 351.46 656.209 348.596 656.209 344.903V335.016H659.09V358.655H656.002L648.496 346.663C646.868 344.118 645.393 341.479 644.078 338.76H643.975C644.147 341.745 644.216 344.592 644.216 348.509V358.621H641.421Z" fill="black"/>
<path d="M693.014 357.569C690.68 358.398 688.226 358.835 685.749 358.863C684.139 359.011 682.517 358.806 680.994 358.261C679.472 357.717 678.087 356.846 676.937 355.71C675.786 354.575 674.898 353.201 674.334 351.686C673.769 350.171 673.543 348.551 673.671 346.939C673.671 339.882 678.537 334.74 686.457 334.74C688.478 334.686 690.488 335.057 692.358 335.827L691.616 338.312C689.984 337.603 688.218 337.256 686.439 337.294C685.167 337.195 683.887 337.373 682.69 337.817C681.492 338.26 680.405 338.957 679.503 339.861C678.601 340.764 677.906 341.853 677.465 343.051C677.024 344.249 676.848 345.529 676.949 346.801C676.949 352.789 680.555 356.343 686.06 356.343C687.447 356.414 688.833 356.197 690.132 355.705V348.665H685.318V346.197H693.117L693.014 357.569Z" fill="black"/>
<path d="M730.008 358.621L723.969 334.981H727.195L730.008 346.939C730.715 349.89 731.337 352.823 731.733 355.118C732.113 352.754 732.855 349.941 733.666 346.905L736.806 334.981H739.999L742.88 346.974C743.553 349.786 744.174 352.581 744.606 355.083C745.089 352.478 745.762 349.907 746.486 346.905L749.61 334.981H752.733L746.038 358.621H742.949L739.964 346.301C739.312 343.759 738.8 341.185 738.428 338.588V338.588C737.955 341.189 737.344 343.764 736.599 346.301L733.235 358.621H730.008Z" fill="#EA1B3D"/>
<path d="M786.536 346.559C786.536 354.686 781.601 359 775.562 359C769.522 359 764.95 354.168 764.95 347.007C764.95 339.501 769.609 334.601 775.924 334.601C782.239 334.601 786.536 339.536 786.536 346.559ZM768.194 346.938C768.194 351.994 770.937 356.515 775.734 356.515C780.531 356.515 783.309 352.063 783.309 346.697C783.309 341.986 780.859 337.086 775.786 337.086C770.713 337.086 768.194 341.745 768.194 346.938Z" fill="#EA1B3D"/>
<path d="M804.895 358.621L798.89 334.981H802.117L804.929 346.939C805.62 349.89 806.258 352.823 806.655 355.118C807.052 352.754 807.776 349.941 808.587 346.905L811.745 334.981H814.937L817.819 346.974C818.475 349.786 819.113 352.581 819.458 355.083C819.958 352.478 820.614 349.907 821.356 346.905L824.479 334.981H827.602L820.907 358.621H817.715L814.73 346.301C814.073 343.76 813.555 341.185 813.177 338.588V338.588C812.719 341.191 812.114 343.766 811.365 346.301L808.001 358.621H804.895Z" fill="#EA1B3D"/>
<path d="M840.527 356.826C840.51 356.545 840.551 356.264 840.648 355.999C840.745 355.735 840.895 355.493 841.089 355.289C841.284 355.085 841.518 354.923 841.777 354.814C842.036 354.704 842.316 354.649 842.597 354.652C843.174 354.652 843.727 354.881 844.135 355.289C844.542 355.696 844.771 356.249 844.771 356.826C844.771 357.403 844.542 357.956 844.135 358.363C843.727 358.771 843.174 359 842.597 359C842.316 359.003 842.036 358.948 841.777 358.838C841.518 358.729 841.284 358.567 841.089 358.363C840.895 358.159 840.745 357.918 840.648 357.653C840.551 357.389 840.51 357.107 840.527 356.826ZM841.407 351.822L840.906 334.981H844.357L843.874 351.822H841.407Z" fill="#EA1B3D"/>
<path d="M171.515 151.802H154.225C153.548 151.802 153 152.35 153 153.027V280.559C153 281.235 153.548 281.784 154.225 281.784H171.515C172.191 281.784 172.74 281.235 172.74 280.559V153.027C172.74 152.35 172.191 151.802 171.515 151.802Z" fill="black"/>
<path d="M253.476 199.891C250.509 197.125 246.976 195.035 243.123 193.765C239.188 192.464 235.069 191.806 230.924 191.816C224.624 191.693 218.401 193.203 212.858 196.198C209.213 198.15 206.075 200.927 203.695 204.308V195.198C203.695 194.873 203.566 194.561 203.337 194.331C203.107 194.102 202.795 193.973 202.47 193.973H186.251C186.09 193.972 185.932 194.004 185.784 194.066C185.637 194.128 185.503 194.218 185.39 194.332C185.278 194.446 185.189 194.582 185.13 194.73C185.07 194.879 185.04 195.038 185.043 195.198V280.575C185.04 280.736 185.07 280.894 185.13 281.043C185.189 281.192 185.278 281.327 185.39 281.441C185.503 281.555 185.637 281.645 185.784 281.707C185.932 281.769 186.09 281.801 186.251 281.801H202.47C202.795 281.801 203.107 281.672 203.337 281.442C203.566 281.212 203.695 280.9 203.695 280.575V236.627C203.605 232.426 204.188 228.238 205.421 224.221C206.389 221.087 208.019 218.198 210.2 215.748C212.148 213.603 214.579 211.952 217.292 210.934C222.375 209.024 227.95 208.866 233.132 210.486C235.287 211.191 237.257 212.37 238.896 213.937C240.685 215.756 242.062 217.939 242.933 220.338C244.027 223.469 244.547 226.772 244.469 230.087V280.575C244.469 280.9 244.598 281.212 244.828 281.442C245.058 281.672 245.369 281.801 245.694 281.801H261.897C262.221 281.801 262.533 281.672 262.763 281.442C262.993 281.212 263.122 280.9 263.122 280.575V225.635C263.228 220.471 262.343 215.334 260.516 210.503C258.968 206.496 256.566 202.875 253.476 199.891V199.891Z" fill="black"/>
<path d="M325.222 202.187C327.498 199.738 329.955 197.466 332.573 195.388C333.366 194.801 332.279 193.973 331.606 193.973H301.324V175.562C301.307 172.932 301.457 170.304 301.773 167.694C301.981 165.735 302.598 163.842 303.584 162.138C304.476 160.658 305.768 159.462 307.311 158.687C309.411 157.783 311.688 157.364 313.972 157.461C315.474 157.456 316.974 157.572 318.458 157.807C319.915 158.07 321.342 158.475 322.72 159.014C322.895 159.08 323.082 159.104 323.267 159.086C323.452 159.068 323.631 159.008 323.79 158.911C323.95 158.817 324.087 158.687 324.188 158.531C324.29 158.375 324.354 158.198 324.377 158.014L326.102 143.606C326.145 143.312 326.077 143.013 325.911 142.768C325.745 142.522 325.493 142.347 325.205 142.277C323.039 141.685 320.819 141.309 318.579 141.155C316.543 141.035 314.61 140.966 312.833 140.966C301.79 140.966 293.852 143.951 289.263 149.818C284.673 155.684 282.361 164.433 282.361 176.062V193.973H265.347C265.022 193.973 264.711 194.102 264.481 194.332C264.251 194.562 264.122 194.873 264.122 195.198V209.244C264.122 209.569 264.251 209.88 264.481 210.11C264.711 210.34 265.022 210.469 265.347 210.469H282.499V280.576C282.496 280.736 282.526 280.895 282.586 281.044C282.645 281.192 282.734 281.327 282.846 281.441C282.959 281.555 283.093 281.646 283.24 281.708C283.388 281.769 283.546 281.801 283.707 281.801H299.926C300.251 281.801 300.563 281.672 300.793 281.442C301.022 281.213 301.151 280.901 301.151 280.576V210.469H318.044C318.855 210.469 319.269 210.469 319.77 209.692C321.413 207.068 323.234 204.56 325.222 202.187V202.187Z" fill="black"/>
<path d="M502.294 222.392C499.731 219.473 496.647 217.056 493.201 215.265C490.926 214.099 488.506 213.24 486.005 212.712C490.813 210.653 495.108 207.56 498.584 203.653C502.997 198.437 505.293 191.757 505.02 184.931C505.131 179.864 504.074 174.84 501.932 170.247C499.954 166.182 497.053 162.636 493.459 159.894C489.652 157.103 485.357 155.049 480.794 153.837C475.692 152.463 470.428 151.784 465.144 151.819H420.747C420.587 151.819 420.428 151.85 420.28 151.912C420.133 151.974 419.999 152.064 419.886 152.178C419.774 152.292 419.685 152.428 419.626 152.576C419.566 152.725 419.537 152.884 419.539 153.044V280.576C419.537 280.736 419.566 280.895 419.626 281.043C419.685 281.192 419.774 281.327 419.886 281.441C419.999 281.555 420.133 281.645 420.28 281.707C420.428 281.769 420.587 281.801 420.747 281.801H464.523C470.564 281.853 476.582 281.051 482.399 279.419C487.647 277.95 492.594 275.567 497.014 272.379C501.163 269.346 504.578 265.419 507.005 260.888C509.507 256.007 510.763 250.583 510.663 245.099C510.734 236.772 507.778 228.703 502.346 222.392H502.294ZM482.399 195.163C481.272 197.356 479.64 199.248 477.637 200.685C475.498 202.203 473.074 203.271 470.51 203.825C467.58 204.467 464.589 204.785 461.589 204.774H439.261V169.401H465.23C471.804 169.401 476.636 171.127 479.621 174.578C482.63 177.976 484.261 182.377 484.193 186.915C484.275 189.77 483.659 192.601 482.399 195.163V195.163ZM439.261 222.357H463.608C471.701 222.357 478.171 224.186 482.865 227.775C487.558 231.364 489.767 236.592 489.767 243.84C489.96 247.481 489.032 251.094 487.11 254.193C485.378 256.726 483.11 258.847 480.466 260.404C477.845 261.952 474.961 263.005 471.96 263.51C469.145 264.007 466.294 264.272 463.436 264.304H439.261V222.357Z" fill="black"/>
<path d="M593.21 206.604C589.618 202.108 585.082 198.456 579.924 195.906C573.754 193.017 566.993 191.616 560.184 191.816C553.968 191.735 547.8 192.909 542.049 195.267C536.661 197.511 531.779 200.814 527.692 204.982C523.63 209.203 520.425 214.172 518.254 219.614C515.929 225.399 514.757 231.583 514.803 237.818C514.759 244.013 515.822 250.167 517.943 255.988C519.931 261.422 522.988 266.404 526.933 270.637C530.96 274.889 535.841 278.24 541.255 280.472C547.228 282.857 553.615 284.03 560.046 283.923C576.576 283.923 589.621 277.884 598.835 265.978C598.936 265.854 599.01 265.71 599.052 265.555C599.093 265.401 599.102 265.239 599.077 265.081C599.06 264.921 599.01 264.766 598.929 264.626C598.849 264.487 598.741 264.365 598.611 264.27L586.36 254.901C586.234 254.799 586.09 254.724 585.935 254.679C585.78 254.634 585.618 254.619 585.457 254.637C585.297 254.655 585.142 254.704 585.001 254.782C584.859 254.859 584.735 254.964 584.634 255.09C581.83 258.628 578.46 261.677 574.661 264.115C570.898 266.389 566.563 267.538 562.168 267.428C558.645 267.43 555.147 266.846 551.815 265.702C548.62 264.623 545.64 262.988 543.015 260.871C540.503 258.815 538.432 256.274 536.924 253.399C535.562 250.805 534.79 247.941 534.664 245.013H601.803C602.123 245.013 602.431 244.886 602.657 244.66C602.884 244.433 603.011 244.126 603.011 243.806V238.06C603.013 232.436 602.241 226.839 600.716 221.426C599.224 216.035 596.672 210.997 593.21 206.604V206.604ZM559.821 207.225C563.317 207.13 566.798 207.717 570.071 208.95C572.816 210.064 575.284 211.767 577.301 213.937C579.24 216.079 580.715 218.599 581.632 221.339C582.525 224.024 583.059 226.815 583.219 229.639H534.612C534.782 227.211 535.366 224.831 536.337 222.599C537.566 219.753 539.29 217.148 541.428 214.903C543.715 212.546 546.433 210.648 549.434 209.313C552.708 207.883 556.25 207.171 559.821 207.225Z" fill="black"/>
<path d="M683.368 265.082V221.496C683.375 217.664 682.642 213.868 681.211 210.314C679.712 206.673 677.419 203.413 674.499 200.772C671.148 197.826 667.232 195.595 662.99 194.215C657.654 192.516 652.075 191.706 646.477 191.817C640.197 191.842 633.967 192.927 628.048 195.026C622.03 197.123 616.504 200.429 611.811 204.741C611.696 204.853 611.605 204.988 611.543 205.136C611.481 205.284 611.449 205.443 611.449 205.604C611.449 205.764 611.481 205.923 611.543 206.072C611.605 206.22 611.696 206.354 611.811 206.466L621.457 216.63C621.661 216.847 621.939 216.98 622.236 217.002C622.533 217.025 622.827 216.935 623.061 216.75C624.511 215.681 626.012 214.524 627.582 213.299C629.134 212.112 630.812 211.099 632.586 210.28C634.574 209.366 636.642 208.638 638.764 208.106C641.347 207.494 643.995 207.204 646.649 207.243C649.59 207.168 652.518 207.654 655.277 208.675C657.481 209.548 659.484 210.864 661.161 212.54C662.658 214.113 663.831 215.966 664.612 217.993C665.372 219.916 665.77 221.964 665.785 224.032V226.413H655.121C648.922 226.383 642.732 226.903 636.624 227.966C631.268 228.844 626.092 230.593 621.301 233.143C617.07 235.398 613.456 238.657 610.776 242.633C608.49 246.571 607.168 250.994 606.919 255.54C606.671 260.087 607.501 264.628 609.344 268.792C610.935 272.068 613.233 274.949 616.073 277.229C619.01 279.533 622.36 281.255 625.943 282.302C629.759 283.42 633.718 283.966 637.694 283.924C643.752 284.058 649.768 282.881 655.328 280.473C659.859 278.268 663.786 274.993 666.769 270.931C666.769 274.192 667.01 277.471 667.286 280.715C667.312 281.021 667.453 281.307 667.68 281.515C667.907 281.723 668.204 281.837 668.511 281.836H682.919C683.089 281.839 683.257 281.805 683.411 281.736C683.566 281.668 683.704 281.567 683.817 281.44C683.933 281.313 684.021 281.162 684.074 280.999C684.128 280.835 684.146 280.662 684.127 280.491C683.886 278.247 683.713 275.849 683.592 273.347C683.471 270.845 683.368 268.067 683.368 265.082ZM665.785 240.787V244.962C665.769 247.806 665.362 250.633 664.577 253.366C663.782 256.132 662.445 258.713 660.643 260.958C658.712 263.31 656.276 265.197 653.517 266.479C650.111 267.975 646.416 268.7 642.698 268.602C638.243 268.839 633.816 267.784 629.946 265.565C626.978 263.615 625.546 260.388 625.546 255.954C625.49 254.59 625.708 253.229 626.188 251.951C626.669 250.674 627.401 249.506 628.342 248.517C630.491 246.365 633.098 244.725 635.968 243.72C639.427 242.508 643.019 241.714 646.666 241.356C650.565 240.963 654.481 240.773 658.4 240.787H665.785Z" fill="black"/>
<path d="M761.499 199.891C758.536 197.118 755.003 195.027 751.146 193.765C747.216 192.465 743.103 191.806 738.964 191.816C732.664 191.693 726.441 193.203 720.898 196.198C717.251 198.154 714.108 200.93 711.718 204.308V195.198C711.72 195.038 711.691 194.879 711.631 194.73C711.571 194.582 711.483 194.446 711.37 194.332C711.258 194.218 711.124 194.128 710.976 194.066C710.829 194.004 710.67 193.972 710.51 193.973H694.29C693.965 193.973 693.654 194.102 693.424 194.331C693.194 194.561 693.065 194.873 693.065 195.198V280.575C693.065 280.9 693.194 281.212 693.424 281.442C693.654 281.672 693.965 281.801 694.29 281.801H710.51C710.67 281.801 710.829 281.769 710.976 281.707C711.124 281.645 711.258 281.555 711.37 281.441C711.483 281.327 711.571 281.192 711.631 281.043C711.691 280.894 711.72 280.736 711.718 280.575V236.627C711.628 232.426 712.21 228.238 713.443 224.221C714.419 221.09 716.048 218.202 718.223 215.748C720.177 213.602 722.614 211.952 725.332 210.934C730.415 209.024 735.99 208.866 741.172 210.486C743.322 211.191 745.285 212.371 746.918 213.937C748.713 215.752 750.091 217.936 750.956 220.338C752.049 223.469 752.569 226.772 752.492 230.087V280.575C752.492 280.9 752.621 281.212 752.85 281.442C753.08 281.672 753.392 281.801 753.717 281.801H769.936C770.261 281.801 770.573 281.672 770.803 281.442C771.032 281.212 771.161 280.9 771.161 280.575V225.635C771.271 220.469 770.38 215.331 768.539 210.503C766.997 206.493 764.594 202.87 761.499 199.891V199.891Z" fill="black"/>
<path d="M845.013 245.307C843.731 242.454 841.841 239.916 839.475 237.871C837.014 235.776 834.213 234.118 831.192 232.97C827.927 231.699 824.577 230.655 821.167 229.847L814.679 228.587C812.31 228.142 809.996 227.442 807.777 226.499C805.786 225.68 803.957 224.511 802.376 223.048C801.693 222.376 801.158 221.568 800.804 220.676C800.451 219.785 800.287 218.83 800.323 217.872C800.286 216.622 800.608 215.388 801.25 214.315C801.892 213.241 802.828 212.374 803.946 211.815C806.818 210.238 810.058 209.452 813.333 209.538C816.727 209.425 820.09 210.211 823.082 211.815C825.676 213.284 827.971 215.227 829.846 217.544C829.944 217.673 830.067 217.781 830.207 217.862C830.347 217.943 830.502 217.995 830.662 218.016C830.823 218.037 830.986 218.026 831.142 217.983C831.298 217.941 831.444 217.868 831.572 217.768L844.185 208.002C844.427 207.817 844.592 207.549 844.649 207.25C844.706 206.951 844.652 206.642 844.496 206.38C841.424 201.297 836.795 197.339 831.296 195.095C822.036 191.301 811.777 190.694 802.135 193.37C798.242 194.444 794.564 196.184 791.264 198.512C788.062 200.765 785.413 203.715 783.517 207.139C781.493 210.888 780.476 215.097 780.566 219.356C780.455 223.099 781.241 226.815 782.861 230.192C784.329 233.04 786.423 235.518 788.986 237.439C791.612 239.377 794.523 240.896 797.614 241.943C800.772 243.03 804.153 244.013 807.691 244.876C809.416 245.221 811.539 245.67 813.868 246.205C816.077 246.713 818.237 247.418 820.321 248.31C822.204 249.113 823.906 250.286 825.325 251.761C825.984 252.445 826.493 253.259 826.823 254.149C827.153 255.04 827.295 255.989 827.241 256.937C827.276 258.396 826.82 259.824 825.947 260.992C824.99 262.26 823.772 263.307 822.375 264.064C820.756 264.949 819.01 265.578 817.198 265.927C815.233 266.322 813.233 266.524 811.228 266.531C807.237 266.639 803.3 265.59 799.892 263.511C796.766 261.542 793.872 259.226 791.264 256.609C791.039 256.407 790.747 256.295 790.444 256.295C790.142 256.295 789.85 256.407 789.625 256.609L777.46 266.669C777.331 266.767 777.222 266.89 777.142 267.031C777.061 267.171 777.009 267.327 776.99 267.488C776.971 267.649 776.984 267.812 777.029 267.968C777.074 268.124 777.151 268.269 777.253 268.395C780.94 273.813 786.084 278.079 792.092 280.697C798.201 282.984 804.69 284.08 811.211 283.924C815.515 283.925 819.805 283.433 823.997 282.458C828.087 281.543 831.979 279.9 835.489 277.609C838.872 275.333 841.707 272.333 843.788 268.826C846.02 264.879 847.135 260.4 847.015 255.868C847.105 252.245 846.423 248.645 845.013 245.307V245.307Z" fill="black"/>
<path d="M323.462 249.501C324.446 248.949 329.657 245.601 334.695 242.771C335.335 242.46 336.037 242.297 336.748 242.294C337.46 242.292 338.163 242.45 338.804 242.756C339.446 243.063 340.011 243.511 340.455 244.066C340.9 244.622 341.214 245.27 341.373 245.963C347.93 265.617 369.516 267.239 381.06 256.316L375.348 252.865C371.638 250.674 371.69 247.206 375.486 245.152L403.267 230.072C407.046 228.018 410.169 229.847 410.169 234.161V265.565C410.169 269.879 407.167 271.604 403.439 269.43L397.469 265.858C384.649 287.703 342.253 293.242 321.806 258.422C321.927 258.456 317.665 252.762 323.462 249.501Z" fill="#EA1B3D"/>
<path d="M338.077 233.314C338.901 227.414 341.724 221.974 346.076 217.905C350.428 213.836 356.044 211.384 361.986 210.958C367.929 210.531 373.837 212.157 378.725 215.564C383.613 218.97 387.184 223.951 388.841 229.673C388.893 229.843 388.979 230 389.095 230.133C389.211 230.267 389.354 230.375 389.514 230.45C389.672 230.519 389.842 230.554 390.015 230.553C390.194 230.557 390.372 230.515 390.532 230.433L406.062 222.996C406.335 222.864 406.549 222.636 406.664 222.356C406.779 222.075 406.786 221.762 406.683 221.477C402.884 210.79 395.234 201.905 385.229 196.561C375.224 191.218 363.585 189.8 352.59 192.587C341.595 195.373 332.036 202.163 325.783 211.627C319.531 221.09 317.036 232.547 318.786 243.753C318.816 243.953 318.895 244.141 319.016 244.303C319.137 244.464 319.296 244.593 319.478 244.679C319.661 244.764 319.862 244.803 320.063 244.792C320.264 244.781 320.46 244.721 320.632 244.616L337.49 234.263C337.655 234.162 337.794 234.023 337.896 233.858C337.998 233.693 338.06 233.507 338.077 233.314V233.314Z" fill="black"/>
</g>
<defs>
<clipPath id="clip0_1_2">
<rect width="694.014" height="218" fill="white" transform="translate(153 141)"/>
</clipPath>
</defs>
</svg>
